<?xml version="1.0" encoding="UTF-8" standalone="no"?>
<!-- Uploaded to: SVG Repo, www.svgrepo.com, Generator: SVG Repo Mixer Tools -->

<svg
   width="800px"
   height="800px"
   viewBox="0 0 32 32"
   version="1.1"
   id="svg1"
   sodipodi:docname="cross-mark.svg"
   inkscape:version="1.4 (86a8ad7, 2024-10-11)"
   xmlns:inkscape="http://www.inkscape.org/namespaces/inkscape"
   xmlns:sodipodi="http://sodipodi.sourceforge.net/DTD/sodipodi-0.dtd"
   xmlns="http://www.w3.org/2000/svg"
   xmlns:svg="http://www.w3.org/2000/svg"
   xmlns:rdf="http://www.w3.org/1999/02/22-rdf-syntax-ns#"
   xmlns:cc="http://creativecommons.org/ns#"
   xmlns:dc="http://purl.org/dc/elements/1.1/"
   xmlns:sketch="http://www.bohemiancoding.com/sketch/ns">
  <sodipodi:namedview
     id="namedview1"
     pagecolor="#ffffff"
     bordercolor="#000000"
     borderopacity="0.25"
     inkscape:showpageshadow="2"
     inkscape:pageopacity="0.0"
     inkscape:pagecheckerboard="0"
     inkscape:deskcolor="#d1d1d1"
     inkscape:zoom="0.505"
     inkscape:cx="142.57426"
     inkscape:cy="427.72277"
     inkscape:window-width="1920"
     inkscape:window-height="1010"
     inkscape:window-x="-6"
     inkscape:window-y="-6"
     inkscape:window-maximized="1"
     inkscape:current-layer="Icon-Set" />
  <title
     id="title1">cross-square</title>
  <desc
     id="desc1">Created with Sketch Beta.</desc>
  <defs
     id="defs1" />
  <g
     id="Page-1"
     stroke="none"
     stroke-width="1"
     fill="none"
     fill-rule="evenodd"
     sketch:type="MSPage">
    <g
       id="Icon-Set"
       sketch:type="MSLayerGroup"
       transform="translate(-204.000000, -1035.000000)"
       fill="#000000">
      <path
         d="m 224.95,1046.05 c -0.391,-0.39 -1.024,-0.39 -1.414,0 l -3.536,3.54 -3.536,-3.54 c -0.39,-0.39 -1.023,-0.39 -1.414,0 -0.39,0.39 -0.39,1.02 0,1.41 l 3.536,3.54 -3.536,3.54 c -0.39,0.39 -0.39,1.02 0,1.41 0.391,0.39 1.024,0.39 1.414,0 l 3.536,-3.54 3.536,3.54 c 0.39,0.39 1.023,0.39 1.414,0 0.39,-0.39 0.39,-1.02 0,-1.41 l -3.536,-3.54 3.536,-3.54 c 0.39,-0.39 0.39,-1.02 0,-1.41 z M 234,1063 c 0,1.1 -0.896,2 -2,2 h -24 c -1.104,0 -2,-0.9 -2,-2 v -24 c 0,-1.1 0.896,-2 2,-2 h 24 c 1.104,0 2,0.9 2,2 z m -2,-28 h -24 c -2.209,0 -4,1.79 -4,4 v 24 c 0,2.21 1.791,4 4,4 h 24 c 2.209,0 4,-1.79 4,-4 v -24 c 0,-2.21 -1.791,-4 -4,-4 z"
         id="cross-square"
         sketch:type="MSShapeGroup"
         sodipodi:nodetypes="cccccccccccccccccssssssssssssssssss" />
    </g>
  </g>
  <metadata
     id="metadata1">
    <rdf:RDF>
      <cc:Work
         rdf:about="">
        <dc:title>cross-square</dc:title>
      </cc:Work>
    </rdf:RDF>
  </metadata>
</svg>
