<?xml version="1.0" encoding="UTF-8" standalone="no"?>
<!-- Uploaded to: SVG Repo, www.svgrepo.com, Generator: SVG Repo Mixer Tools -->

<svg
   fill="#000000"
   width="606.40002"
   height="608"
   viewBox="0 0 37.900002 38"
   version="1.1"
   id="svg2"
   sodipodi:docname="gear.svg"
   inkscape:version="1.4 (86a8ad7, 2024-10-11)"
   xmlns:inkscape="http://www.inkscape.org/namespaces/inkscape"
   xmlns:sodipodi="http://sodipodi.sourceforge.net/DTD/sodipodi-0.dtd"
   xmlns="http://www.w3.org/2000/svg"
   xmlns:svg="http://www.w3.org/2000/svg">
  <defs
     id="defs2" />
  <sodipodi:namedview
     id="namedview2"
     pagecolor="#ffffff"
     bordercolor="#000000"
     borderopacity="0.25"
     inkscape:showpageshadow="2"
     inkscape:pageopacity="0.0"
     inkscape:pagecheckerboard="0"
     inkscape:deskcolor="#d1d1d1"
     inkscape:zoom="0.505"
     inkscape:cx="142.57426"
     inkscape:cy="475.24752"
     inkscape:window-width="1920"
     inkscape:window-height="1010"
     inkscape:window-x="-6"
     inkscape:window-y="-6"
     inkscape:window-maximized="1"
     inkscape:current-layer="svg2" />
  <path
     id="path2"
     d="m 21.7,38 h -5.4 l -1.5,-4.6 c -1,-0.3 -2,-0.7 -2.9,-1.2 L 7.5,34.4 3.7,30.6 5.9,26.2 C 5.4,25.3 5,24.3 4.7,23.3 L 0,21.7 v -5.4 l 4.6,-1.5 c 0.3,-1 0.7,-2 1.2,-2.9 L 3.6,7.5 7.4,3.7 11.8,5.9 C 12.7,5.4 13.7,5 14.7,4.7 L 16.3,0 h 5.4 l 1.5,4.6 c 1,0.3 2,0.7 2.9,1.2 l 4.4,-2.2 3.8,3.8 -2.2,4.4 c 0.5,0.9 0.9,1.9 1.2,2.9 l 4.6,1.5 v 5.4 l -4.6,1.5 c -0.3,1 -0.7,2 -1.2,2.9 l 2.2,4.4 -3.8,3.8 -4.4,-2.2 c -0.9,0.5 -1.9,0.9 -2.9,1.2 z m -4,-2 h 2.6 l 1.4,-4.3 0.5,-0.1 c 1.2,-0.3 2.3,-0.8 3.4,-1.4 l 0.5,-0.3 4,2 1.8,-1.8 -2,-4 0.3,-0.5 c 0.6,-1 1.1,-2.2 1.4,-3.4 l 0.1,-0.5 4.3,-1.4 v -2.6 l -4.3,-1.4 -0.1,-0.5 c -0.3,-1.2 -0.8,-2.3 -1.4,-3.4 l -0.3,-0.5 2,-4 -1.8,-1.8 -4,2 -0.5,-0.3 C 24.5,7.2 23.4,6.7 22.2,6.4 L 21.7,6.3 20.3,2 h -2.6 l -1.4,4.3 -0.5,0.1 c -1.2,0.3 -2.3,0.8 -3.4,1.4 l -0.5,0.3 -4,-2 -1.8,1.8 2,4 -0.3,0.5 c -0.6,1 -1.1,2.2 -1.4,3.4 L 6.3,16.3 2,17.7 v 2.6 l 4.3,1.4 0.1,0.5 c 0.3,1.2 0.8,2.3 1.4,3.4 l 0.3,0.5 -2,4 1.8,1.8 4,-2 0.5,0.3 c 1.1,0.6 2.2,1.1 3.4,1.4 l 0.5,0.1 z M 19,28 c -5,0 -9,-4 -9,-9 0,-5 4,-9 9,-9 5,0 9,4 9,9 0,5 -4,9 -9,9 z m 0,-16 c -3.9,0 -7,3.1 -7,7 0,3.9 3.1,7 7,7 3.9,0 7,-3.1 7,-7 0,-3.9 -3.1,-7 -7,-7 z" />
</svg>
